<svg width="1440" height="173" viewBox="0 0 1440 173" fill="none" xmlns="http://www.w3.org/2000/svg">
<g opacity="0.05">
<path d="M1300.52 0.652832L1276.67 41.3459H1334.25V169.301H1382.37V41.3459H1415.99L1442.36 0.652832H1300.52Z" fill="#00A3D9"/>
<path d="M1267.56 0.652832H1219.32V169.301H1267.56V0.652832Z" fill="#00A3D9"/>
<path d="M1125.27 52.1176V77.1428H1096.26L1125.27 52.1176ZM1119.12 0L1036.27 76.1635V119.686H1125.93V170.171H1177.9V119.686H1184.93L1212.18 77.9044H1177.9V0H1119.12Z" fill="#00A3D9"/>
<path d="M977.709 0.652832L941.231 55.817L906.731 0.652832H849.596L916.729 96.7277V169.301H964.963V97.9245L1035.5 0.652832H977.709Z" fill="#00A3D9"/>
<path d="M813.448 41.3459L839.818 0.652832H707.969V169.301H756.424V105.106H806.965L833.335 64.4126H756.424V41.3459H813.448Z" fill="#00A3D9"/>
<path d="M447.569 41.3459L473.829 0.652832H342.86V169.301H447.349L473.719 128.608H391.204V105.106H440.977L467.456 64.4126H391.204V41.3459H447.569Z" fill="#00A3D9"/>
<path d="M690.939 0.652832H642.704V169.301H690.939V0.652832Z" fill="#00A3D9"/>
<path d="M569.968 41.346H607.325L633.585 0.652888H565.683C549.778 0.299718 533.966 3.15002 519.207 9.03087C494.815 20.8906 480.861 48.7447 480.861 85.1944C480.861 116.095 489.761 139.597 506.791 153.742C520.965 165.275 535.468 169.192 564.145 169.192H607.215L633.585 128.499H571.177C561.833 129.268 552.475 127.179 544.368 122.515C537.116 116.965 532.721 101.95 532.721 82.3655C531.689 71.5039 534.191 60.6 539.863 51.2472C543.836 47.5708 548.561 44.7838 553.717 43.0753C558.874 41.3669 564.341 40.7771 569.748 41.346" fill="#00A3D9"/>
<path d="M265.179 0.652832H197.057L170.798 41.3459H266.388C270.092 41.1296 273.807 41.5342 277.375 42.5428C279.895 43.8745 281.953 45.9236 283.285 48.4256C284.617 50.9276 285.161 53.7675 284.846 56.5786C285.097 59.3001 284.768 62.0435 283.878 64.6304C282.988 67.2173 281.559 69.5898 279.682 71.5937C275.32 73.8269 270.39 74.7353 265.509 74.205H176.072V169.301H224.306V114.898H274.298C295.284 114.898 306.052 111.852 316.929 102.603C323.259 96.9621 328.29 90.0403 331.683 82.3063C335.077 74.5722 336.752 66.2065 336.597 57.7755C336.61 49.9887 335.063 42.2767 332.045 35.0861C329.028 27.8956 324.6 21.3694 319.017 15.8855C306.931 3.91698 295.394 0.652832 265.179 0.652832Z" fill="#00A3D9"/>
<path d="M98.391 63.4333H71.9115C65.3917 64.2014 58.7816 63.341 52.6836 60.9308C51.2349 59.9654 50.0601 58.6484 49.2715 57.1055C48.4828 55.5627 48.1067 53.8454 48.1788 52.1176C48.0786 50.4159 48.4443 48.7191 49.2372 47.2061C50.0301 45.6932 51.2208 44.4204 52.6836 43.522C59.8579 41.7244 67.2867 41.1359 74.6583 41.7811H134.1L160.689 0.652815H66.9672C53.8213 -0.243751 40.6185 1.15576 27.9621 4.78741C18.3254 8.66006 10.1225 15.3704 4.46298 24.0107C-1.19656 32.6509 -4.03958 42.8042 -3.6815 53.0968C-3.77818 60.7866 -2.10719 68.3974 1.205 75.3532C4.51719 82.3091 9.38379 88.4276 15.4365 93.2459C28.4731 101.574 43.9252 105.4 59.3859 104.126H90.2604C95.5449 103.643 100.868 104.466 105.753 106.52C107.842 107.44 109.59 108.983 110.752 110.933C111.914 112.884 112.432 115.145 112.235 117.401C112.318 119.288 111.828 121.156 110.829 122.766C109.831 124.375 108.369 125.652 106.632 126.431C99.9785 128.599 92.9598 129.449 85.9753 128.934H25.2152L-1.15441 169.301H93.8862C120.915 169.301 132.122 167.451 141.791 161.249C148.933 156.281 154.739 149.658 158.703 141.959C162.667 134.259 164.669 125.716 164.535 117.074C164.798 109.694 163.54 102.337 160.839 95.4533C158.137 88.5695 154.049 82.3024 148.823 77.034C137.836 67.2415 123.772 63.4333 98.391 63.4333Z" fill="#00A3D9"/>
</g>
</svg>
