<?xml version="1.0" encoding="UTF-8"?>
<svg width="220px" height="221px" viewBox="0 0 220 221" version="1.1" xmlns="http://www.w3.org/2000/svg" xmlns:xlink="http://www.w3.org/1999/xlink">
    <!-- Generator: Sketch 59 (86127) - https://sketch.com -->
    <title>Resolution-dot-logo-white</title>
    <desc>Created with Sketch.</desc>
    <g id="Page-1" stroke="none" stroke-width="1" fill="none" fill-rule="evenodd">
        <g id="Resolution-dot-logo-white" fill-rule="nonzero">
            <path d="M110.39,0.77 C49.8485461,0.764477404 0.765523676,49.8385458 0.760000912,110.38 C0.754478149,170.921454 49.8285464,220.004476 110.37,220.009999 C170.911454,220.015522 219.994477,170.941454 220,110.4 L220,110.4 C220.002652,81.3269683 208.455979,53.4436388 187.900117,32.8840256 C167.344254,12.3244124 139.463032,0.772652044 110.39,0.77 Z" id="Path" fill="#FFFFFF"></path>
            <path d="M170.08,114.46 C153.957146,114.548195 140.946012,127.666527 140.989998,143.789563 C141.034207,159.912598 154.116904,172.959562 170.24,172.959562 C186.363096,172.959562 199.445793,159.912598 199.489998,143.789563 C199.533988,127.666527 186.522854,114.548195 170.4,114.46 L170.08,114.46 Z" id="Path" fill="#F47F28"></path>
            <path d="M35.54,163.22 L28.44,163.22 L28.44,170.76 L125.09,170.76 L125.09,163.22 L119.38,163.22 C111.52,163.22 105.01,160.33 105.01,151.65 L105.01,76.65 C105.01,67.01 108.64,64.46 112.96,64.46 C122.43,64.46 125.74,85.2 140.69,88.03 C141.933565,88.2019792 143.185275,88.3087918 144.44,88.35 C144.73,88.35 148.17,88.15 149.5,87.9 C161.97,85.53 167.62,74.28 167.62,62.77 C167.62,51.69 158.82,39.84 144.05,37.77 C143.48,37.68 142.92,37.62 142.33,37.56 C141.91,37.56 138.93,37.7 138.67,37.7 C122.81,38.09 110.9,51.46 104.67,61.5 L105,61.5 L105,34.77 C86.17,44.68 52,58.87 31.66,65.51 L49.78,77.7 L49.78,151.64 C49.78,160.29 43.43,163.22 35.54,163.22 Z" id="Path" fill="#414141"></path>
        </g>
    </g>
</svg>